<svg aria-hidden="true" style="position: absolute; width: 0; height: 0; overflow: hidden;" version="1.1" xmlns="http://www.w3.org/2000/svg" xmlns:xlink="http://www.w3.org/1999/xlink">
<defs>
<symbol id="icon-github" viewBox="0 0 31 32">
<path fill="#F8D24E" style="fill: var(--color1, #F8D24E)" d="M31.030 16.43c0 8.571-6.946 15.519-15.515 15.519s-15.515-6.948-15.515-15.519c0-8.571 6.946-15.519 15.515-15.519s15.515 6.948 15.515 15.519z"></path>
<path fill="#FCFCFC" style="fill: var(--color2, #FCFCFC)" d="M15.515 7.301c-5.013 0-9.127 4.114-9.127 9.129 0 4.278 3.001 8.165 6.988 9.129v-3.020c-0.158 0.040-0.34 0.063-0.526 0.063-0.226 0-0.444-0.034-0.65-0.096l0.016 0.004c-0.539-0.16-0.977-0.52-1.303-1.067-0.207-0.351-0.574-0.73-0.958-0.702l-0.094-1.067c0.829-0.070 1.547 0.506 1.972 1.222 0.189 0.318 0.407 0.504 0.686 0.587 0.271 0.079 0.56 0.042 0.898-0.078 0.085-0.677 0.395-0.931 0.629-1.287-2.378-0.355-3.325-1.616-3.7-2.612-0.498-1.322-0.232-2.973 0.65-4.017 0.017-0.019 0.049-0.074 0.036-0.111-0.403-1.221 0.088-2.23 0.107-2.337 0.465 0.138 0.542-0.139 2.025 0.762l0.257 0.154c0.107 0.064 0.074 0.027 0.18 0.019 0.572-0.162 1.23-0.259 1.91-0.27l0.006-0c0.695 0.011 1.362 0.111 1.996 0.29l-0.055-0.013 0.082 0.008c-0.007 0 0.023-0.005 0.073-0.035 1.853-1.122 1.786-0.755 2.284-0.917 0.017 0.108 0.504 1.135 0.104 2.339-0.053 0.166 1.607 1.687 0.687 4.128-0.376 0.996-1.324 2.257-3.7 2.612 0.305 0.465 0.67 0.712 0.669 1.67v3.77c3.985-0.963 6.987-4.85 6.987-9.129 0-5.013-4.113-9.129-9.126-9.129z"></path>
</symbol>
<symbol id="icon-telegram" viewBox="0 0 32 32">
<path fill="#F8D24E" style="fill: var(--color1, #F8D24E)" d="M31.258 16.43c0 8.571-6.946 15.519-15.515 15.519s-15.515-6.948-15.515-15.519c0-8.571 6.946-15.519 15.515-15.519s15.515 6.948 15.515 15.519z"></path>
<path fill="#fff" style="fill: var(--color3, #fff)" d="M12.705 18.735l-0.307 4.044c0.44 0 0.63-0.177 0.86-0.39l2.065-1.842 4.281 2.927c0.785 0.407 1.338 0.194 1.55-0.675l2.81-12.291c0.25-1.084-0.419-1.508-1.183-1.241l-16.517 5.902c-1.128 0.407-1.11 0.995-0.192 1.261l4.223 1.226 9.807-5.729c0.462-0.285 0.882-0.128 0.536 0.158l-7.934 6.65z"></path>
</symbol>
<symbol id="icon-facebook" viewBox="0 0 31 32">
<path fill="#F8D24E" style="fill: var(--color1, #F8D24E)" d="M15.515 31.949c8.569 0 15.515-6.948 15.515-15.519s-6.946-15.518-15.515-15.518-15.515 6.947-15.515 15.518c0 8.571 6.946 15.519 15.515 15.519z"></path>
<path fill="#FCFCFC" style="fill: var(--color2, #FCFCFC)" d="M19.826 16.412h-2.531v9.329h-3.836v-9.328h-1.823v-3.28h1.823v-2.122c0-1.517 0.718-3.892 3.869-3.892l2.841 0.012v3.183h-2.061c-0.339 0-0.815 0.17-0.815 0.894v1.93h2.866l-0.335 3.276z"></path>
</symbol>
<symbol id="icon-Arrow" viewBox="0 0 82 32">
<path d="M81.414 17.414c0.781-0.781 0.781-2.047 0-2.828l-12.728-12.728c-0.781-0.781-2.047-0.781-2.828 0s-0.781 2.047 0 2.828l11.314 11.314-11.314 11.314c-0.781 0.781-0.781 2.047 0 2.828s2.047 0.781 2.828 0l12.728-12.728zM0 18h80v-4h-80v4z"></path>
</symbol>
<symbol id="icon-right" viewBox="0 0 26 32">
<path stroke-linejoin="round" stroke-linecap="round" stroke-miterlimit="4" stroke-width="6.4" d="M5.172 3.2l14.169 12.8-14.169 12.8"></path>
</symbol>
<symbol id="burger" viewBox="0 0 50 32">
<path fill="none" stroke="#fff" style="stroke: var(--color1, #fff)" stroke-linejoin="miter" stroke-linecap="round" stroke-miterlimit="4" stroke-width="4.5714" d="M2.286 2.286h45.714"></path>
<path fill="none" stroke="#fff" style="stroke: var(--color1, #fff)" stroke-linejoin="miter" stroke-linecap="round" stroke-miterlimit="4" stroke-width="4.5714" d="M2.286 16h45.714"></path>
<path fill="none" stroke="#fff" style="stroke: var(--color1, #fff)" stroke-linejoin="miter" stroke-linecap="round" stroke-miterlimit="4" stroke-width="4.5714" d="M2.286 29.714h45.714"></path>
</symbol>
<symbol id="arrow-hero" viewBox="0 0 82 32">
<path fill="#FCFCFC" style="fill: var(--color1, #FCFCFC)" d="M81.414 17.414c0.781-0.781 0.781-2.047 0-2.828l-12.728-12.728c-0.781-0.781-2.047-0.781-2.828 0s-0.781 2.047 0 2.828l11.314 11.314-11.314 11.314c-0.781 0.781-0.781 2.047 0 2.828s2.047 0.781 2.828 0l12.728-12.728zM0 18h80v-4h-80v4z"></path>
</symbol>
<symbol id="buy-now" viewBox="0 0 20 32">
<path stroke-linejoin="round" stroke-linecap="round" stroke-miterlimit="4" stroke-width="5.8182" d="M5.678 3.765l11.777 12.321-11.777 12.321"></path>
</symbol>
<symbol id="icon-close-button" viewBox="0 0 32 32">
<path d="M32 3.223l-3.223-3.223-12.777 12.777-12.777-12.777-3.223 3.223 12.777 12.777-12.777 12.777 3.223 3.223 12.777-12.777 12.777 12.777 3.223-3.223-12.777-12.777 12.777-12.777z"></path>
</symbol>
<symbol id="close-button-mobile" viewBox="0 0 32 32">
<path fill="#fff" style="fill: var(--color1, #fff)" d="M28.614 1.13l-12.614 12.614-12.614-12.614c-0.303-0.278-0.702-0.427-1.113-0.418s-0.803 0.176-1.094 0.467c-0.291 0.291-0.458 0.683-0.467 1.094s0.141 0.81 0.418 1.113l12.608 12.614-12.611 12.611c-0.154 0.147-0.277 0.323-0.362 0.518s-0.13 0.405-0.133 0.618 0.037 0.424 0.117 0.621c0.080 0.197 0.199 0.376 0.349 0.527s0.329 0.27 0.526 0.35 0.408 0.121 0.621 0.118c0.213-0.002 0.423-0.047 0.618-0.132s0.372-0.208 0.519-0.361l12.618-12.611 12.614 12.614c0.303 0.278 0.702 0.428 1.113 0.418s0.803-0.176 1.094-0.467c0.291-0.291 0.458-0.683 0.467-1.094s-0.141-0.81-0.418-1.113l-12.614-12.614 12.614-12.618c0.154-0.147 0.277-0.323 0.362-0.518s0.13-0.405 0.133-0.618c0.003-0.213-0.037-0.424-0.117-0.621s-0.199-0.376-0.349-0.527c-0.15-0.151-0.329-0.27-0.526-0.35s-0.408-0.121-0.621-0.118-0.423 0.047-0.618 0.132c-0.195 0.085-0.372 0.208-0.519 0.362v0.003z"></path>
</symbol>
</defs>
</svg>

